<?xml version="1.0" standalone="no"?>
<!DOCTYPE svg PUBLIC "-//W3C//DTD SVG 20010904//EN"
 "http://www.w3.org/TR/2001/REC-SVG-20010904/DTD/svg10.dtd">
<svg version="1.0" xmlns="http://www.w3.org/2000/svg"
 width="512.000000pt" height="512.000000pt" viewBox="0 0 512.000000 512.000000"
 preserveAspectRatio="xMidYMid meet">

<g transform="translate(0.000000,512.000000) scale(0.100000,-0.100000)"
fill="#000000" stroke="none">
<path d="M3317 5109 c-468 -54 -889 -309 -1157 -699 -141 -207 -227 -432 -266
-694 -22 -146 -14 -398 15 -538 141 -657 633 -1139 1300 -1275 123 -25 450
-25 576 0 173 35 285 72 435 148 447 222 764 635 866 1126 23 110 27 154 28
308 1 229 -18 351 -87 550 -136 394 -459 752 -837 928 -277 130 -581 180 -873
146z m465 -219 c562 -118 989 -546 1110 -1113 31 -146 31 -409 0 -553 -32
-146 -66 -244 -133 -374 -215 -417 -617 -698 -1086 -761 -111 -15 -342 -7
-448 16 -205 43 -413 135 -570 253 -365 273 -575 688 -575 1137 0 542 304
1035 787 1275 155 76 280 113 498 144 71 10 324 -4 417 -24z"/>
<path d="M3375 4674 c-209 -29 -378 -92 -540 -199 -142 -94 -309 -283 -386
-438 -297 -589 -65 -1297 521 -1592 381 -191 818 -164 1185 73 99 64 278 248
343 354 150 242 209 524 168 798 -75 492 -444 883 -931 985 -77 16 -298 28
-360 19z m288 -209 c346 -60 638 -304 756 -630 173 -477 -42 -1000 -500 -1219
-134 -64 -228 -87 -384 -93 -105 -4 -148 -1 -226 15 -398 82 -700 390 -775
789 -21 115 -15 304 15 418 26 100 104 261 165 341 221 293 593 441 949 379z"/>
<path d="M3472 4108 c-7 -7 -12 -24 -12 -39 0 -23 -5 -28 -37 -34 -98 -18
-184 -77 -228 -157 -26 -46 -30 -63 -29 -133 0 -92 18 -137 81 -197 35 -33
119 -82 186 -107 l27 -11 0 -120 c0 -76 -4 -120 -10 -120 -20 0 -75 27 -129
64 -71 48 -108 48 -150 1 -25 -29 -31 -44 -31 -83 0 -100 87 -158 298 -198 15
-3 22 -11 22 -27 0 -32 18 -47 55 -47 36 0 65 26 65 58 0 16 11 24 53 36 157
46 246 173 235 335 -9 121 -68 197 -205 264 l-83 39 0 109 c0 72 4 109 11 109
6 0 44 -13 85 -30 80 -32 103 -30 138 8 26 30 33 105 12 137 -27 41 -70 57
-207 80 -30 4 -38 11 -44 33 -4 15 -12 30 -18 34 -19 12 -72 9 -85 -4z m8
-353 c0 -47 -2 -85 -5 -85 -4 0 -19 7 -35 15 -34 17 -60 52 -60 78 0 25 53 77
79 77 20 0 21 -6 21 -85z m139 -406 c49 -48 40 -113 -19 -144 -16 -8 -31 -15
-35 -15 -3 0 -5 43 -5 95 0 108 7 116 59 64z"/>
<path d="M1730 1949 c-98 -13 -258 -67 -340 -115 -130 -75 -252 -186 -303
-275 l-22 -38 -503 -3 -504 -3 -29 -33 -29 -32 0 -630 0 -630 29 -32 29 -33
499 -3 c274 -2 512 0 529 3 18 3 44 17 58 32 25 25 26 30 26 141 l0 115 88 -6
c175 -12 297 -61 506 -202 70 -48 165 -104 210 -126 161 -77 119 -73 905 -77
782 -3 789 -3 955 62 155 61 298 158 491 332 212 191 667 648 707 708 75 116
106 282 74 406 -52 200 -257 337 -455 302 -129 -23 -154 -41 -426 -313 l-251
-249 -28 65 c-48 110 -128 185 -242 227 -57 22 -74 23 -584 28 -616 6 -572 -2
-693 126 -81 86 -168 152 -249 189 -126 57 -303 83 -448 64z m280 -215 c103
-30 170 -74 275 -180 107 -107 161 -141 270 -169 49 -12 141 -15 535 -15 287
0 493 -5 520 -11 70 -16 118 -53 146 -112 42 -91 27 -177 -44 -250 -64 -66
-75 -67 -618 -67 l-482 0 -31 -26 c-25 -21 -31 -33 -31 -66 0 -21 5 -48 11
-60 25 -46 47 -48 556 -48 508 0 562 4 654 50 31 15 165 144 439 420 l395 399
57 12 c78 17 135 0 193 -56 53 -52 70 -104 61 -190 -12 -120 -40 -157 -319
-431 -461 -452 -591 -563 -762 -649 -172 -86 -157 -85 -909 -85 -364 0 -686 4
-716 9 -95 16 -164 49 -322 154 -85 56 -181 117 -215 134 -117 63 -286 106
-458 116 l-40 2 -3 290 c-2 175 2 315 8 353 41 241 268 439 562 491 69 13 199
5 268 -15z m-1040 -914 l0 -500 -385 0 -385 0 0 500 0 500 385 0 385 0 0 -500z"/>
<path d="M2131 904 c-25 -21 -31 -33 -31 -66 0 -53 14 -77 57 -94 69 -29 133
16 133 94 0 82 -94 121 -159 66z"/>
</g>
</svg>
