<?xml version="1.0" standalone="no"?>
<!DOCTYPE svg PUBLIC "-//W3C//DTD SVG 20010904//EN"
 "http://www.w3.org/TR/2001/REC-SVG-20010904/DTD/svg10.dtd">
<svg version="1.0" xmlns="http://www.w3.org/2000/svg"
 width="512.000000pt" height="512.000000pt" viewBox="0 0 512.000000 512.000000"
 preserveAspectRatio="xMidYMid meet">

<g transform="translate(0.000000,512.000000) scale(0.100000,-0.100000)"
fill="#000000" stroke="none">
<path d="M3317 5109 c-468 -54 -889 -309 -1157 -699 -141 -207 -227 -432 -266
-694 -22 -146 -14 -398 15 -538 141 -657 633 -1139 1300 -1275 123 -25 450
-25 576 0 173 35 285 72 435 148 447 222 764 635 866 1126 23 110 27 154 28
308 1 229 -18 351 -87 550 -136 394 -459 752 -837 928 -277 130 -581 180 -873
146z m460 -218 c275 -56 519 -187 718 -385 205 -205 336 -445 396 -728 30
-137 32 -398 5 -533 -87 -443 -363 -812 -753 -1009 -206 -104 -362 -144 -593
-152 -307 -11 -570 61 -822 225 -327 214 -541 530 -625 921 -26 121 -25 420 1
540 43 199 111 361 218 522 76 114 253 294 363 370 187 130 421 219 645 247
113 15 330 6 447 -18z"/>
<path d="M3380 4675 c-8 -2 -48 -9 -89 -15 -230 -38 -460 -159 -635 -336 -349
-353 -438 -903 -216 -1347 202 -404 608 -657 1055 -657 206 0 371 40 549 133
547 284 783 950 537 1516 -135 311 -430 573 -745 662 -136 38 -370 61 -456 44z
m271 -210 c337 -50 626 -281 756 -602 205 -509 -55 -1093 -569 -1282 -125 -46
-179 -55 -338 -55 -183 0 -266 17 -416 88 -118 56 -201 115 -290 208 -194 202
-286 449 -271 732 13 245 110 462 286 637 166 164 332 245 581 283 59 8 172 5
261 -9z"/>
<path d="M3490 4117 c-17 -9 -26 -22 -28 -43 -3 -29 -7 -32 -55 -43 -141 -31
-231 -129 -244 -265 -12 -136 48 -223 206 -298 l91 -43 0 -117 c0 -68 -4 -118
-10 -118 -16 0 -63 24 -124 62 -73 47 -111 49 -149 10 -32 -33 -47 -78 -39
-117 12 -65 135 -147 242 -162 73 -9 80 -13 80 -36 0 -32 18 -47 56 -47 39 0
64 22 64 55 0 20 8 26 42 36 106 28 180 87 220 174 31 68 33 210 3 270 -30 61
-93 116 -184 160 l-81 39 0 108 0 108 28 -6 c15 -4 53 -17 84 -30 88 -37 138
-6 146 89 4 50 2 55 -28 80 -33 28 -101 51 -182 62 -37 5 -48 10 -48 24 0 42
-49 69 -90 48z m-10 -362 c0 -47 -2 -85 -5 -85 -4 0 -19 7 -35 15 -34 17 -60
52 -60 78 0 25 53 77 79 77 20 0 21 -6 21 -85z m113 -386 c46 -21 70 -87 47
-130 -9 -16 -58 -49 -75 -49 -3 0 -5 43 -5 95 0 52 2 95 5 95 2 0 15 -5 28
-11z"/>
<path d="M1730 1949 c-98 -13 -258 -67 -340 -115 -130 -75 -252 -186 -303
-275 l-22 -38 -503 -3 -504 -3 -29 -33 -29 -32 0 -630 0 -630 29 -32 29 -33
499 -3 c274 -2 512 0 529 3 17 3 43 16 58 30 25 23 26 28 26 141 l0 117 88 -6
c175 -12 297 -61 506 -202 70 -48 165 -104 210 -126 161 -77 119 -73 905 -77
782 -3 789 -3 955 62 155 61 298 158 491 332 212 191 667 648 707 708 75 116
106 282 74 406 -52 200 -257 337 -455 302 -129 -23 -154 -41 -426 -313 l-251
-249 -28 65 c-48 110 -128 185 -242 227 -57 22 -74 23 -584 28 -616 6 -572 -2
-693 126 -81 86 -168 152 -249 189 -126 57 -303 83 -448 64z m280 -215 c116
-33 188 -84 323 -232 21 -23 67 -55 101 -72 128 -63 123 -63 692 -69 l521 -6
40 -27 c52 -34 93 -113 93 -177 -1 -81 -60 -170 -135 -203 -23 -10 -148 -14
-537 -16 l-506 -3 -25 -25 c-49 -48 -37 -126 23 -156 32 -16 78 -18 516 -18
280 0 504 4 535 10 128 24 148 40 551 451 205 209 389 389 408 399 104 54 220
21 282 -78 19 -31 22 -51 22 -117 -1 -141 -13 -159 -312 -454 -463 -457 -594
-569 -767 -655 -172 -86 -167 -86 -920 -86 -722 0 -741 2 -855 59 -33 16 -112
65 -177 108 -65 44 -152 98 -193 121 -130 71 -300 116 -465 125 l-50 2 0 325
c0 291 2 331 19 380 50 147 158 267 316 349 165 86 343 109 500 65z m-1040
-919 l0 -495 -385 0 -385 0 0 495 0 495 385 0 385 0 0 -495z"/>
<path d="M2133 912 c-56 -42 -44 -134 19 -165 71 -35 138 8 138 87 0 57 -39
96 -94 96 -23 0 -51 -8 -63 -18z"/>
</g>
</svg>
