<?xml version="1.0" encoding="UTF-8"?>
<!DOCTYPE svg PUBLIC "-//W3C//DTD SVG 1.1//EN" "http://www.w3.org/Graphics/SVG/1.1/DTD/svg11.dtd">
<svg xmlns="http://www.w3.org/2000/svg" version="1.1" width="512px" height="512px" style="shape-rendering:geometricPrecision; text-rendering:geometricPrecision; image-rendering:optimizeQuality; fill-rule:evenodd; clip-rule:evenodd" xmlns:xlink="http://www.w3.org/1999/xlink">
<g><path style="opacity:0.965" fill="#000000" d="M 232.5,-0.5 C 247.833,-0.5 263.167,-0.5 278.5,-0.5C 379.371,12.3469 450.871,65.0136 493,157.5C 502.497,181.819 508.663,206.819 511.5,232.5C 511.5,247.833 511.5,263.167 511.5,278.5C 501.026,367.433 457.36,434.6 380.5,480C 348.466,497.292 314.466,507.792 278.5,511.5C 263.167,511.5 247.833,511.5 232.5,511.5C 143.853,500.61 76.6868,456.943 31,380.5C 13.7076,348.465 3.20759,314.465 -0.5,278.5C -0.5,263.167 -0.5,247.833 -0.5,232.5C 11.9006,134.848 62.234,64.3481 150.5,21C 176.892,9.73692 204.225,2.57026 232.5,-0.5 Z M 254.5,31.5 C 350.587,35.9305 419.421,81.2639 461,167.5C 489.397,239.679 483.73,309.013 444,375.5C 398.985,441.771 336.151,476.438 255.5,479.5C 174.849,476.438 112.015,441.771 67,375.5C 29.0863,312.848 22.0863,246.848 46,177.5C 69.4204,118.746 109.92,76.2458 167.5,50C 195.479,38.3725 224.479,32.2058 254.5,31.5 Z"/></g>
<g><path style="opacity:0.965" fill="#000000" d="M 249.5,95.5 C 259.36,93.3496 266.527,96.6829 271,105.5C 271.333,113.167 271.667,120.833 272,128.5C 309.788,140.286 328.122,165.953 327,205.5C 324.193,212.487 319.027,215.82 311.5,215.5C 303.973,215.82 298.807,212.487 296,205.5C 294.374,174.532 278.207,159.699 247.5,161C 221.343,169.808 211.843,187.641 219,214.5C 223.5,224.333 230.667,231.5 240.5,236C 252.438,238.329 264.438,240.329 276.5,242C 304.343,251.509 321.176,270.675 327,299.5C 330.406,341.712 312.073,369.378 272,382.5C 271.667,390.167 271.333,397.833 271,405.5C 266.527,414.482 259.36,417.649 249.5,415C 245,413.167 241.833,410 240,405.5C 239.667,397.833 239.333,390.167 239,382.5C 201.212,370.714 182.878,345.047 184,305.5C 186.807,298.513 191.973,295.18 199.5,295.5C 207.027,295.18 212.193,298.513 215,305.5C 216.626,336.468 232.793,351.301 263.5,350C 289.657,341.192 299.157,323.359 292,296.5C 287.5,286.667 280.333,279.5 270.5,275C 258.562,272.671 246.562,270.671 234.5,269C 196.984,254.826 180.151,227.659 184,187.5C 190.599,156.901 208.932,137.234 239,128.5C 239.333,120.833 239.667,113.167 240,105.5C 242.022,100.98 245.189,97.6467 249.5,95.5 Z"/></g>
</svg>
