<?xml version="1.0" encoding="UTF-8"?>
<!DOCTYPE svg PUBLIC "-//W3C//DTD SVG 1.1//EN" "http://www.w3.org/Graphics/SVG/1.1/DTD/svg11.dtd">
<svg xmlns="http://www.w3.org/2000/svg" version="1.1" width="512px" height="512px" style="shape-rendering:geometricPrecision; text-rendering:geometricPrecision; image-rendering:optimizeQuality; fill-rule:evenodd; clip-rule:evenodd" xmlns:xlink="http://www.w3.org/1999/xlink">
<g><path style="opacity:0.936" fill="#000000" d="M 344.5,41.5 C 399.956,40.8285 437.79,66.1618 458,117.5C 471.547,169.867 456.714,212.034 413.5,244C 399.93,252.45 385.263,258.116 369.5,261C 375.245,272.492 381.245,283.825 387.5,295C 407.304,300.951 427.304,306.285 447.5,311C 458.58,314.973 465.08,322.806 467,334.5C 467.908,351.206 467.575,367.873 466,384.5C 462.434,393.732 455.934,399.899 446.5,403C 439.833,403.333 433.167,403.667 426.5,404C 417.203,425.486 400.87,434.819 377.5,432C 361.843,428.342 351.177,419.008 345.5,404C 325.167,403.667 304.833,403.333 284.5,403C 279.695,399.911 278.528,395.744 281,390.5C 282.214,388.951 283.714,387.785 285.5,387C 304.833,386.667 324.167,386.333 343.5,386C 346.75,366.75 357.75,354.417 376.5,349C 400.221,345.424 416.721,354.591 426,376.5C 427.043,379.757 427.543,383.09 427.5,386.5C 432.511,386.666 437.511,386.499 442.5,386C 445.583,385.214 447.749,383.381 449,380.5C 450.597,366.222 450.93,351.889 450,337.5C 449.285,331.785 446.118,328.285 440.5,327C 421.833,322.333 403.167,317.667 384.5,313C 379.142,310.646 374.642,307.146 371,302.5C 364.294,288.922 357.461,275.422 350.5,262C 337.387,261.378 324.72,258.711 312.5,254C 280.502,253.5 248.502,253.333 216.5,253.5C 216.5,257.833 216.5,262.167 216.5,266.5C 257.206,266.029 297.873,266.529 338.5,268C 340.96,269.458 343.127,271.291 345,273.5C 350.478,283.285 354.978,293.451 358.5,304C 357.927,311.244 354.26,316.244 347.5,319C 303.835,319.5 260.168,319.667 216.5,319.5C 216.666,326.508 216.5,333.508 216,340.5C 214.276,345.143 212.276,349.477 210,353.5C 232.784,343.113 251.784,347.78 267,367.5C 278.415,390.429 274.249,409.929 254.5,426C 233.51,437.006 214.677,434.173 198,417.5C 194.852,413.371 192.352,408.871 190.5,404C 185.833,403.333 181.167,403.333 176.5,404C 175.718,422.773 174.885,441.607 174,460.5C 172.402,465.099 169.235,467.932 164.5,469C 140.5,469.667 116.5,469.667 92.5,469C 86.0928,467.261 82.5928,463.094 82,456.5C 81.1396,424.499 80.3063,392.499 79.5,360.5C 60.1487,363.28 48.3154,355.28 44,336.5C 43.0602,304.14 43.3936,271.806 45,239.5C 50.716,218.784 64.216,206.95 85.5,204C 115.5,203.333 145.5,203.333 175.5,204C 195.618,206.38 208.618,217.214 214.5,236.5C 237.169,236.667 259.836,236.5 282.5,236C 247.187,204.042 235.687,164.875 248,118.5C 264.764,73.3858 296.93,47.7191 344.5,41.5 Z M 346.5,58.5 C 387.302,58.3078 417.468,75.9745 437,111.5C 454.676,155.624 445.843,193.457 410.5,225C 376.48,248.683 341.147,250.683 304.5,231C 268.43,206.005 254.597,171.838 263,128.5C 273.097,94.7369 294.93,72.5702 328.5,62C 334.581,60.5026 340.581,59.3359 346.5,58.5 Z M 87.5,220.5 C 116.502,220.333 145.502,220.5 174.5,221C 186.815,223.412 194.981,230.578 199,242.5C 199.667,274.167 199.667,305.833 199,337.5C 197.833,340 196,341.833 193.5,343C 188.177,343.499 182.844,343.666 177.5,343.5C 177.667,322.497 177.5,301.497 177,280.5C 175.839,276.174 173.005,273.841 168.5,273.5C 165.183,274.066 162.683,275.733 161,278.5C 159.5,336.492 158.333,394.492 157.5,452.5C 150.5,452.5 143.5,452.5 136.5,452.5C 136.667,423.165 136.5,393.831 136,364.5C 132.987,359.465 128.82,358.298 123.5,361C 121.513,362.319 120.346,364.152 120,366.5C 119.5,395.165 119.333,423.831 119.5,452.5C 112.5,452.5 105.5,452.5 98.5,452.5C 98.2646,394.825 97.4313,337.158 96,279.5C 90.6037,271.786 85.2704,271.786 80,279.5C 79.5,300.831 79.3334,322.164 79.5,343.5C 75.4862,343.666 71.4862,343.499 67.5,343C 63.8345,341.332 61.6678,338.499 61,334.5C 60.3333,305.833 60.3333,277.167 61,248.5C 63.558,233.111 72.3914,223.778 87.5,220.5 Z M 216.5,283.5 C 254.839,283.167 293.172,283.5 331.5,284.5C 334.372,290.412 337.372,296.245 340.5,302C 299.168,302.5 257.835,302.667 216.5,302.5C 216.5,296.167 216.5,289.833 216.5,283.5 Z M 202.5,358.5 C 194.829,365.841 190.329,374.841 189,385.5C 184.934,386.464 180.767,386.797 176.5,386.5C 176.368,377.809 176.701,369.142 177.5,360.5C 185.961,360.95 194.294,360.284 202.5,358.5 Z M 224.5,365.5 C 247.733,364.563 257.899,375.563 255,398.5C 246.751,414.695 234.251,419.195 217.5,412C 202.793,399.342 201.793,385.675 214.5,371C 217.767,368.87 221.1,367.037 224.5,365.5 Z M 379.5,365.5 C 402.733,364.563 412.899,375.563 410,398.5C 401.751,414.695 389.251,419.195 372.5,412C 357.793,399.342 356.793,385.675 369.5,371C 372.767,368.87 376.1,367.037 379.5,365.5 Z"/></g>
<g><path style="opacity:0.936" fill="#000000" d="M 117.5,43.5 C 141.052,42.061 164.052,44.8944 186.5,52C 197.576,56.1377 203.576,64.1377 204.5,76C 202.076,85.9389 199.243,95.7722 196,105.5C 195.047,107.455 193.713,109.122 192,110.5C 194.335,134.849 188.335,156.849 174,176.5C 156.101,195.683 134.601,201.183 109.5,193C 90.1958,184.019 77.6958,169.186 72,148.5C 69.1083,136.012 67.775,123.346 68,110.5C 67,109.167 66,107.833 65,106.5C 62.1316,98.2283 59.465,89.895 57,81.5C 55.0106,70.8005 58.1773,61.9672 66.5,55C 83.1225,48.912 100.122,45.0786 117.5,43.5 Z M 115.5,60.5 C 134.039,59.6043 152.373,61.1043 170.5,65C 175.383,66.0722 180.05,67.7388 184.5,70C 186.393,72.9172 186.893,76.0838 186,79.5C 184.202,85.8946 182.202,92.2279 180,98.5C 177.293,100.936 174.127,102.436 170.5,103C 144.167,103.667 117.833,103.667 91.5,103C 88.4055,102.286 85.4055,101.286 82.5,100C 78.897,93.2012 76.0637,86.0345 74,78.5C 73.1048,75.5337 73.6048,72.8671 75.5,70.5C 78.9315,68.5203 82.5982,67.0203 86.5,66C 96.1936,63.5502 105.86,61.7169 115.5,60.5 Z M 85.5,119.5 C 115.5,120.833 145.5,120.833 175.5,119.5C 175.619,136.977 170.452,152.644 160,166.5C 146.527,179.528 131.027,182.695 113.5,176C 100.091,168.241 91.5912,156.741 88,141.5C 85.9721,134.306 85.1388,126.973 85.5,119.5 Z"/></g>
<g><path style="opacity:0.912" fill="#000000" d="M 390.5,115.5 C 400.53,116.425 403.363,121.425 399,130.5C 380.472,149.362 361.638,167.862 342.5,186C 338.167,188 333.833,188 329.5,186C 322,178.5 314.5,171 307,163.5C 303.456,154.059 306.623,149.559 316.5,150C 323.302,155.801 329.802,161.968 336,168.5C 353.782,150.215 371.949,132.548 390.5,115.5 Z"/></g>
</svg>
