<?xml version="1.0" standalone="no"?>
<!DOCTYPE svg PUBLIC "-//W3C//DTD SVG 20010904//EN"
 "http://www.w3.org/TR/2001/REC-SVG-20010904/DTD/svg10.dtd">
<svg version="1.0" xmlns="http://www.w3.org/2000/svg"
 width="512.000000pt" height="512.000000pt" viewBox="0 0 512.000000 512.000000"
 preserveAspectRatio="xMidYMid meet">

<g transform="translate(0.000000,512.000000) scale(0.100000,-0.100000)"
fill="#000000" stroke="none">
<path d="M2435 5108 c-79 -15 -428 -118 -452 -134 -32 -20 -32 -82 0 -112 13
-12 29 -22 36 -22 7 0 108 28 224 62 202 60 217 63 317 62 76 0 124 -6 175
-21 39 -12 224 -66 413 -122 188 -56 358 -107 376 -115 53 -22 112 -82 136
-138 35 -83 25 -164 -38 -303 l-50 -110 -1013 -2 -1014 -3 -55 128 c-47 108
-55 136 -55 187 1 106 59 195 157 240 68 32 78 42 78 85 0 48 -39 85 -80 75
-146 -35 -272 -177 -301 -339 -16 -93 -1 -160 72 -326 l59 -134 0 -676 c0
-387 5 -704 10 -743 29 -201 139 -375 308 -488 43 -28 78 -52 80 -53 1 -2 -37
-58 -86 -125 l-87 -122 -140 -60 c-77 -33 -205 -87 -285 -120 -80 -34 -176
-77 -215 -97 -204 -107 -352 -295 -408 -517 -9 -33 -50 -271 -93 -529 -71
-429 -76 -471 -63 -495 8 -14 27 -30 42 -36 52 -18 73 6 167 187 48 93 89 170
91 173 3 3 27 -15 53 -40 26 -24 69 -52 94 -61 26 -10 51 -20 55 -24 4 -4 -2
-41 -13 -82 -23 -85 -17 -117 27 -137 61 -28 93 -1 118 97 25 100 89 257 140
344 39 67 49 78 73 78 41 0 125 44 178 92 53 49 107 150 124 235 11 51 14 56
88 108 154 108 377 205 570 245 129 27 358 37 488 20 250 -31 491 -122 695
-261 86 -59 86 -60 98 -117 16 -83 53 -155 112 -217 56 -59 112 -91 180 -103
42 -7 43 -8 101 -117 34 -65 77 -169 104 -253 40 -123 50 -145 72 -153 49 -19
102 15 102 66 0 17 -7 54 -15 81 -19 64 -19 84 3 84 33 1 100 38 141 79 l40
40 72 -132 c39 -73 81 -150 93 -172 39 -73 110 -85 145 -24 13 24 8 68 -63
495 -42 258 -86 502 -97 543 -30 114 -100 239 -181 326 -79 85 -109 95 -153
50 -39 -38 -32 -67 35 -141 65 -71 118 -160 144 -237 9 -27 30 -128 46 -225
17 -97 37 -212 44 -255 8 -43 10 -75 5 -70 -5 5 -45 83 -90 173 -44 91 -100
192 -124 226 -117 164 -345 309 -506 321 -108 9 -173 -26 -201 -110 l-13 -37
-72 44 c-149 93 -328 169 -491 207 -48 12 -88 22 -90 24 -3 3 526 321 550 330
9 4 104 -31 218 -79 111 -47 212 -86 224 -86 47 0 84 76 58 118 -9 13 -117 63
-332 152 l-115 48 -88 121 c-49 66 -86 125 -82 131 3 6 23 19 44 29 142 73
276 252 322 429 18 71 19 116 19 778 l0 703 60 136 c74 167 84 205 78 305 -4
66 -11 92 -41 154 -41 83 -116 159 -189 193 -48 23 -807 248 -908 269 -73 15
-181 16 -255 2z m1105 -1183 l0 -75 -982 2 -983 3 -3 73 -3 72 986 0 985 0 0
-75z m-10 -235 c0 -21 -41 -92 -75 -129 -19 -21 -63 -51 -97 -67 l-63 -29
-740 0 c-737 0 -740 0 -787 22 -58 27 -134 95 -159 145 -38 74 -128 68 951 68
665 0 970 -3 970 -10z m-1916 -285 c52 -40 137 -74 211 -85 90 -13 1364 -13
1464 0 79 10 159 42 216 86 l35 26 0 -388 c0 -419 -2 -439 -55 -546 -52 -107
-141 -195 -248 -247 -69 -34 -637 -212 -677 -213 -41 0 -609 179 -689 218 -99
49 -186 136 -235 235 -60 123 -66 168 -66 577 0 199 3 362 6 362 3 0 20 -11
38 -25z m514 -1416 c85 -33 192 -70 238 -82 51 -12 83 -25 80 -31 -2 -6 -36
-87 -75 -181 -38 -93 -71 -170 -73 -170 -12 0 -488 291 -488 298 0 10 152 226
160 227 2 0 73 -27 158 -61z m1101 -49 c45 -61 81 -113 81 -118 0 -8 -474
-292 -488 -292 -7 0 -156 351 -150 354 2 1 46 14 98 28 52 15 156 52 230 82
74 30 138 55 142 56 3 0 43 -50 87 -110z m-595 -367 c36 -89 66 -164 66 -167
0 -3 -64 -6 -141 -6 l-141 0 5 23 c11 47 132 326 139 319 3 -4 36 -80 72 -169z
m-662 -30 l280 -167 -74 -18 c-175 -43 -392 -133 -528 -221 l-55 -35 -25 51
c-38 77 -65 92 -163 92 -66 0 -96 -5 -155 -28 -148 -59 -312 -189 -397 -317
-23 -36 -75 -130 -114 -209 -40 -79 -74 -141 -77 -138 -5 5 59 398 78 477 6
25 28 83 50 130 33 69 56 99 127 170 58 57 107 96 151 118 71 36 599 261 614
262 5 0 134 -75 288 -167z m-526 -479 c3 -19 4 -71 2 -114 -6 -95 -43 -178
-100 -224 -48 -38 -123 -46 -197 -21 -53 17 -171 97 -171 116 0 19 155 163
213 197 80 48 166 81 209 82 35 0 38 -2 44 -36z m2399 -3 c38 -17 99 -54 137
-82 78 -58 163 -153 153 -170 -11 -17 -136 -94 -174 -107 -47 -16 -126 -15
-160 3 -46 23 -97 91 -117 153 -18 59 -24 166 -11 216 8 27 10 28 56 24 27 -3
79 -19 116 -37z m-2876 -429 c32 -22 73 -45 90 -52 17 -7 31 -16 31 -21 0 -5
-18 -46 -41 -90 l-40 -81 -35 5 c-51 8 -90 42 -110 92 -15 39 -15 52 -4 88 13
44 37 97 45 97 2 0 31 -17 64 -38z m3272 -9 c51 -106 3 -213 -101 -229 l-35
-5 -42 85 -41 85 66 37 c37 20 77 45 91 55 13 10 27 19 31 19 4 0 18 -21 31
-47z"/>
<path d="M2265 2658 c-30 -16 -45 -39 -45 -67 0 -31 20 -56 80 -103 88 -68
174 -93 292 -85 65 4 94 12 153 41 78 39 155 111 155 147 0 26 -52 79 -78 79
-11 0 -44 -20 -73 -45 -29 -24 -75 -52 -102 -61 -91 -30 -217 -4 -272 56 -20
22 -67 50 -82 50 -4 0 -17 -6 -28 -12z"/>
<path d="M2325 1075 c-287 -52 -530 -177 -733 -378 -162 -159 -273 -335 -341
-540 -28 -83 -23 -112 25 -134 57 -28 80 -8 124 107 20 52 49 120 65 150 111
217 321 424 542 534 81 41 221 91 281 101 l43 7 -4 -399 c-2 -219 -7 -410 -11
-424 -6 -20 -2 -32 16 -52 59 -67 121 -34 138 73 11 70 14 897 4 925 -6 15
-55 46 -71 44 -4 0 -39 -7 -78 -14z"/>
<path d="M2683 1079 c-12 -4 -26 -17 -32 -28 -15 -27 -15 -882 0 -950 12 -57
37 -84 80 -84 65 0 63 -14 60 469 l-3 436 44 -7 c23 -4 81 -21 128 -37 355
-125 629 -398 760 -756 35 -96 61 -120 113 -103 59 20 64 50 26 157 -134 380
-435 688 -812 828 -152 57 -320 92 -364 75z"/>
</g>
</svg>
