<?xml version="1.0" standalone="no"?>
<!DOCTYPE svg PUBLIC "-//W3C//DTD SVG 20010904//EN"
 "http://www.w3.org/TR/2001/REC-SVG-20010904/DTD/svg10.dtd">
<svg version="1.0" xmlns="http://www.w3.org/2000/svg"
 width="512.000000pt" height="512.000000pt" viewBox="0 0 512.000000 512.000000"
 preserveAspectRatio="xMidYMid meet">

<g transform="translate(0.000000,512.000000) scale(0.100000,-0.100000)"
fill="#000000" stroke="none">
<path d="M4053 5105 c-358 -65 -643 -333 -725 -685 l-20 -89 -253 -3 c-238 -3
-255 -4 -281 -24 -41 -30 -64 -65 -70 -106 -9 -53 25 -118 75 -146 37 -21 50
-22 294 -22 l254 0 23 -62 c77 -215 259 -506 527 -841 177 -221 247 -295 293
-307 93 -25 138 12 374 306 286 356 453 626 534 862 35 102 36 113 36 237 -1
152 -21 241 -84 374 -178 372 -577 579 -977 506z m301 -305 c224 -57 389 -222
446 -446 11 -43 20 -99 20 -127 0 -146 -104 -361 -326 -672 -107 -150 -264
-347 -280 -352 -23 -8 -301 356 -419 549 -141 227 -190 352 -189 478 3 379
378 665 748 570z"/>
<path d="M4155 4316 c-64 -28 -106 -109 -90 -173 33 -132 217 -154 277 -33 62
124 -63 260 -187 206z"/>
<path d="M684 4319 c-83 -14 -205 -56 -263 -91 -75 -46 -96 -77 -96 -143 0
-121 125 -190 227 -127 86 53 140 64 355 71 183 5 204 8 230 27 90 66 81 201
-17 252 -41 20 -56 22 -215 21 -93 -1 -193 -5 -221 -10z"/>
<path d="M1595 4316 c-53 -24 -95 -85 -95 -138 0 -42 39 -104 79 -126 38 -21
48 -22 372 -22 298 0 338 2 368 18 48 24 73 62 78 119 6 65 -20 111 -77 141
-43 22 -51 22 -370 22 -248 -1 -332 -4 -355 -14z"/>
<path d="M78 3715 c-57 -39 -72 -92 -65 -223 7 -119 25 -196 67 -288 61 -136
180 -275 250 -294 107 -29 209 70 185 178 -3 17 -33 61 -66 98 -98 112 -139
220 -139 372 0 59 -5 85 -20 110 -45 73 -142 95 -212 47z"/>
<path d="M855 3012 c-53 -34 -69 -59 -72 -120 -5 -72 19 -115 80 -142 39 -18
68 -20 362 -20 293 0 324 2 362 19 97 45 116 162 39 240 l-36 36 -353 3 c-329
2 -354 1 -382 -16z"/>
<path d="M2060 3012 c-19 -10 -46 -34 -58 -53 -32 -47 -28 -136 9 -175 34 -37
51 -44 148 -64 127 -26 217 -75 322 -176 91 -87 115 -100 179 -91 82 11 138
88 125 169 -15 88 -166 227 -340 312 -167 82 -321 113 -385 78z"/>
<path d="M3275 2626 c-53 -24 -95 -85 -95 -138 0 -67 79 -148 144 -148 l26 0
0 -277 c0 -256 2 -280 19 -309 11 -18 131 -118 270 -223 138 -106 253 -195
255 -200 3 -4 -111 -97 -254 -205 -186 -142 -263 -207 -274 -231 -13 -28 -16
-79 -16 -313 l0 -279 -40 -7 c-78 -12 -140 -96 -126 -171 8 -43 50 -94 93
-111 26 -12 185 -14 872 -14 569 0 849 3 868 11 72 27 113 105 93 178 -13 50
-68 99 -120 107 l-40 7 0 281 c0 249 -2 285 -17 314 -16 28 -129 119 -461 372
-62 47 -70 56 -58 68 8 8 124 98 258 201 175 134 248 196 260 221 16 31 18 68
18 308 l0 272 26 0 c78 0 152 91 139 170 -8 49 -47 98 -92 116 -47 20 -1703
20 -1748 0z m1373 -508 l-3 -221 -245 -188 c-135 -104 -247 -188 -250 -188 -3
0 -115 84 -250 188 l-245 188 -3 221 -2 222 500 0 500 0 -2 -222z m-243 -1175
l245 -188 0 -227 0 -228 -500 0 -500 0 0 228 0 227 243 187 c133 103 248 187
255 187 6 1 122 -83 257 -186z"/>
<path d="M795 2310 c-169 -22 -358 -109 -490 -225 -124 -109 -231 -284 -276
-450 -32 -119 -32 -301 0 -413 69 -242 324 -643 665 -1043 120 -141 156 -169
218 -169 53 1 91 29 179 130 333 383 596 780 678 1023 l18 52 102 6 c80 4 107
9 128 25 93 70 95 191 4 251 -29 20 -47 23 -121 23 l-87 0 -13 62 c-69 354
-349 639 -699 713 -92 19 -223 25 -306 15z m275 -316 c133 -38 270 -137 346
-252 21 -31 51 -95 68 -142 43 -123 42 -232 -2 -349 -42 -111 -106 -228 -211
-386 -75 -114 -249 -345 -334 -445 -29 -34 -29 -34 -45 -13 -276 345 -412 542
-503 728 -89 183 -103 259 -74 400 41 196 191 369 381 441 122 46 252 52 374
18z"/>
<path d="M829 1497 c-67 -44 -88 -135 -46 -197 36 -54 71 -74 127 -74 146 0
203 190 81 271 -23 16 -49 23 -81 23 -32 0 -58 -7 -81 -23z"/>
<path d="M2765 2180 c-71 -15 -106 -59 -125 -159 -25 -134 -99 -264 -200 -352
-69 -60 -84 -91 -78 -159 11 -113 129 -165 229 -101 61 39 158 143 214 229
107 167 165 386 122 468 -28 55 -100 87 -162 74z"/>
</g>
</svg>
