<?xml version="1.0" standalone="no"?>
<!DOCTYPE svg PUBLIC "-//W3C//DTD SVG 20010904//EN"
 "http://www.w3.org/TR/2001/REC-SVG-20010904/DTD/svg10.dtd">
<svg version="1.0" xmlns="http://www.w3.org/2000/svg"
 width="512.000000pt" height="512.000000pt" viewBox="0 0 512.000000 512.000000"
 preserveAspectRatio="xMidYMid meet">

<g transform="translate(0.000000,512.000000) scale(0.100000,-0.100000)"
fill="#000000" stroke="none">
<path d="M4005 5110 c-300 -47 -562 -235 -695 -500 -45 -90 -88 -222 -98 -305
l-7 -60 -1090 -6 c-976 -5 -1097 -7 -1158 -22 -250 -62 -435 -163 -603 -331
-170 -170 -280 -372 -330 -606 -23 -106 -26 -352 -5 -455 48 -245 161 -457
335 -631 168 -168 352 -269 603 -331 62 -15 204 -17 1548 -22 1421 -6 1481 -7
1518 -25 77 -38 137 -133 137 -216 0 -92 -80 -202 -166 -228 -32 -9 -340 -12
-1297 -12 l-1255 0 -69 71 c-360 374 -959 316 -1244 -119 -88 -134 -124 -258
-124 -432 0 -174 36 -298 124 -432 285 -435 884 -493 1244 -119 l68 70 1327 4
c1312 3 1328 3 1412 24 362 90 651 318 814 641 84 168 121 329 121 532 0 157
-12 236 -56 372 -58 179 -155 335 -293 474 -168 168 -352 269 -603 331 -62 15
-204 17 -1548 22 -1421 6 -1481 7 -1518 25 -77 38 -137 133 -137 216 0 92 80
202 166 228 32 9 350 12 1342 12 l1301 0 88 -29 c278 -93 578 -54 826 105 94
60 231 199 289 294 53 86 100 196 125 296 24 95 24 333 0 428 -45 179 -128
327 -257 457 -130 133 -270 214 -449 260 -88 24 -292 33 -386 19z m345 -173
c207 -57 368 -172 481 -345 203 -309 159 -726 -102 -991 -159 -161 -340 -236
-569 -236 -226 0 -407 75 -566 233 -154 153 -229 337 -229 562 0 174 36 297
124 432 119 182 304 308 521 354 80 17 262 12 340 -9z m-1138 -920 c23 -179
135 -403 268 -532 l41 -40 -1208 -5 -1208 -5 -67 -32 c-93 -44 -151 -100 -196
-191 -35 -72 -37 -81 -37 -171 0 -87 3 -102 32 -163 44 -93 100 -151 191 -196
l76 -37 1490 -6 c1134 -4 1502 -8 1536 -17 102 -28 179 -57 255 -94 296 -148
507 -434 560 -763 92 -563 -295 -1098 -860 -1190 -76 -13 -288 -15 -1322 -15
l-1231 0 20 52 c11 29 25 82 32 118 l12 65 132 5 c118 5 134 7 153 27 29 29
29 77 0 106 -19 20 -35 22 -153 27 l-132 5 -12 65 c-7 36 -21 89 -32 117 l-20
53 1242 2 1241 3 67 32 c93 44 151 100 196 191 35 72 37 81 37 171 0 87 -3
102 -32 163 -44 93 -100 151 -191 196 l-76 37 -1485 6 c-1557 6 -1510 4 -1651
51 -479 157 -779 636 -709 1134 21 153 93 331 184 459 53 74 171 192 245 244
119 84 307 160 445 180 33 5 532 8 1110 7 l1050 -1 7 -58z m-2222 -2526 c194
-61 361 -229 423 -426 17 -55 22 -94 22 -185 0 -91 -5 -130 -22 -185 -63 -199
-229 -365 -428 -428 -99 -31 -271 -31 -370 0 -197 62 -365 230 -426 423 -29
91 -35 226 -15 320 50 238 251 442 486 495 88 20 244 13 330 -14z"/>
<path d="M4025 4785 c-187 -41 -348 -166 -435 -339 -124 -247 -78 -537 115
-730 121 -122 256 -184 419 -193 292 -16 560 170 649 452 31 99 31 271 0 370
-100 316 -430 510 -748 440z m250 -160 c172 -45 305 -179 350 -352 65 -249
-94 -511 -350 -578 -250 -65 -513 94 -580 350 -89 342 238 669 580 580z"/>
<path d="M4105 4455 c-24 -23 -25 -28 -25 -175 0 -147 1 -152 25 -175 23 -24
31 -25 135 -25 104 0 112 1 135 25 33 32 33 78 0 110 -20 21 -34 25 -80 25
l-55 0 0 95 c0 88 -2 98 -25 120 -15 16 -36 25 -55 25 -19 0 -40 -9 -55 -25z"/>
<path d="M1071 3829 c-50 -10 -77 -30 -83 -64 -6 -28 14 -80 33 -87 8 -3 99
-3 203 0 181 5 191 6 213 28 31 31 30 78 -2 109 -24 24 -28 25 -172 24 -81 -1
-168 -5 -192 -10z"/>
<path d="M1805 3815 c-16 -15 -25 -36 -25 -55 0 -19 9 -40 25 -55 24 -25 26
-25 208 -25 171 0 186 1 211 21 20 16 26 29 26 59 0 30 -6 43 -26 59 -25 20
-40 21 -211 21 -182 0 -184 0 -208 -25z"/>
<path d="M2595 3815 c-16 -15 -25 -36 -25 -55 0 -19 9 -40 25 -55 24 -25 26
-25 204 -25 113 0 189 4 205 11 35 16 52 61 37 98 -19 45 -46 51 -242 51 -178
0 -180 0 -204 -25z"/>
<path d="M583 3546 c-52 -60 -101 -143 -129 -222 -30 -82 -30 -109 1 -139 47
-48 111 -24 135 52 20 60 65 143 109 202 46 61 50 87 20 125 -16 20 -29 26
-59 26 -33 0 -44 -6 -77 -44z"/>
<path d="M483 2835 c-39 -28 -39 -69 2 -151 42 -87 145 -218 186 -239 40 -21
57 -19 90 14 44 44 38 70 -31 148 -33 37 -78 102 -100 145 -23 43 -49 82 -60
88 -27 14 -62 12 -87 -5z"/>
<path d="M1082 2377 c-27 -29 -28 -77 -3 -108 19 -23 23 -24 208 -27 180 -3
190 -2 216 18 38 30 38 90 1 119 -25 20 -40 21 -214 21 -182 0 -187 -1 -208
-23z"/>
<path d="M1875 2375 c-16 -15 -25 -36 -25 -55 0 -19 9 -40 25 -55 24 -25 26
-25 210 -25 l187 0 29 29 c16 16 29 39 29 51 0 12 -13 35 -29 51 l-29 29 -187
0 c-184 0 -186 0 -210 -25z"/>
<path d="M2683 2388 c-32 -16 -48 -61 -34 -97 19 -45 46 -51 242 -51 178 0
180 0 204 25 16 15 25 36 25 55 0 19 -9 40 -25 55 -24 25 -26 25 -207 24 -106
0 -192 -5 -205 -11z"/>
<path d="M3466 2379 c-37 -29 -37 -89 0 -118 25 -20 40 -21 209 -21 169 0 184
1 209 21 20 16 26 29 26 59 0 30 -6 43 -26 59 -25 20 -40 21 -209 21 -169 0
-184 -1 -209 -21z"/>
<path d="M4239 2271 c-18 -18 -29 -40 -29 -56 0 -28 10 -39 110 -118 30 -24
76 -70 103 -103 26 -32 58 -63 71 -68 35 -13 82 9 97 46 11 27 10 36 -11 74
-47 89 -237 254 -292 254 -11 0 -33 -13 -49 -29z"/>
<path d="M4585 1605 c-14 -13 -25 -34 -25 -47 -1 -49 -31 -164 -60 -226 -35
-76 -37 -100 -9 -136 22 -28 64 -35 101 -15 30 16 88 150 109 253 25 120 24
132 -10 167 -36 36 -73 37 -106 4z"/>
<path d="M4120 993 c-47 -15 -110 -27 -170 -30 -80 -5 -97 -10 -117 -29 -31
-31 -30 -78 2 -109 20 -21 33 -25 88 -25 124 0 296 44 335 86 12 14 22 36 22
49 0 28 -36 71 -65 78 -11 3 -54 -6 -95 -20z"/>
<path d="M2263 948 c-32 -16 -48 -61 -34 -97 19 -45 46 -51 242 -51 178 0 180
0 204 25 16 15 25 36 25 55 0 19 -9 40 -25 55 -24 25 -26 25 -207 24 -106 0
-192 -5 -205 -11z"/>
<path d="M3046 939 c-37 -29 -37 -89 0 -118 25 -20 40 -21 209 -21 169 0 184
1 209 21 20 16 26 29 26 59 0 30 -6 43 -26 59 -25 20 -40 21 -209 21 -169 0
-184 -1 -209 -21z"/>
<path d="M505 1255 c-14 -13 -25 -36 -25 -50 0 -14 34 -93 75 -175 l75 -150
-75 -150 c-41 -82 -75 -161 -75 -175 0 -35 42 -75 77 -74 16 0 179 76 368 172
367 186 372 189 349 255 -8 23 -57 51 -349 199 -189 96 -352 172 -368 172 -17
1 -38 -9 -52 -24z m505 -375 c0 -3 -61 -36 -135 -73 l-135 -67 30 60 c16 33
30 69 30 80 0 11 -14 47 -30 80 l-30 60 135 -67 c74 -37 135 -70 135 -73z"/>
</g>
</svg>
