<?xml version="1.0" standalone="no"?>
<!DOCTYPE svg PUBLIC "-//W3C//DTD SVG 20010904//EN"
 "http://www.w3.org/TR/2001/REC-SVG-20010904/DTD/svg10.dtd">
<svg version="1.0" xmlns="http://www.w3.org/2000/svg"
 width="512.000000pt" height="512.000000pt" viewBox="0 0 512.000000 512.000000"
 preserveAspectRatio="xMidYMid meet">

<g transform="translate(0.000000,512.000000) scale(0.100000,-0.100000)"
fill="#000000" stroke="none">
<path d="M2565 5095 l-25 -24 0 -433 c1 -466 0 -457 53 -477 31 -12 53 -6 85
22 l22 20 0 434 0 434 -25 24 c-15 16 -36 25 -55 25 -19 0 -40 -9 -55 -25z"/>
<path d="M1935 4675 l-25 -24 0 -225 c0 -196 2 -227 17 -241 26 -26 60 -36 90
-24 51 19 52 27 53 267 l0 223 -25 24 c-15 16 -36 25 -55 25 -19 0 -40 -9 -55
-25z"/>
<path d="M3195 4675 l-25 -24 0 -224 c0 -219 0 -224 23 -244 31 -28 53 -34 84
-22 51 19 52 27 53 267 l0 223 -25 24 c-15 16 -36 25 -55 25 -19 0 -40 -9 -55
-25z"/>
<path d="M2420 3985 c-501 -84 -890 -464 -997 -975 -21 -103 -24 -320 -4 -430
86 -482 442 -861 921 -980 120 -30 352 -38 476 -16 129 22 243 60 358 119 335
171 570 484 642 854 24 118 23 348 0 458 -96 445 -395 784 -814 925 -170 57
-405 75 -582 45z m376 -166 c225 -40 419 -144 580 -311 127 -132 213 -285 261
-466 23 -85 26 -117 26 -257 0 -142 -3 -172 -26 -260 -134 -501 -590 -824
-1108 -784 -454 36 -829 366 -935 824 -29 125 -25 349 9 477 104 393 412 686
812 771 83 18 296 21 381 6z"/>
<path d="M2583 3573 c-34 -7 -48 -31 -53 -97 l-5 -61 -51 -25 c-75 -37 -107
-63 -148 -123 -98 -143 -81 -331 42 -454 62 -61 134 -93 236 -104 98 -11 149
-41 184 -109 65 -129 -23 -270 -168 -270 -100 0 -173 65 -189 171 -15 93 -84
127 -142 70 -34 -35 -37 -70 -13 -152 31 -105 94 -177 198 -229 l51 -25 5 -61
c3 -34 11 -68 18 -77 21 -24 66 -30 100 -13 36 18 42 33 42 97 0 38 4 51 18
55 109 36 190 106 236 204 25 54 30 77 31 140 0 94 -22 158 -78 230 -60 76
-138 117 -249 131 -101 12 -144 33 -182 87 -79 112 -20 261 115 291 113 25
228 -64 229 -177 0 -24 9 -42 29 -63 38 -38 74 -38 112 0 35 35 37 72 10 160
-34 109 -110 190 -217 230 l-49 19 -3 55 c-4 74 -45 112 -109 100z"/>
<path d="M382 1672 c-12 -12 -24 -32 -26 -44 -3 -13 -14 -354 -25 -758 -15
-576 -17 -740 -8 -760 7 -14 27 -30 47 -36 21 -7 170 -15 381 -19 l346 -8 21
23 c20 22 27 43 34 108 2 19 25 36 119 84 170 88 133 92 769 -87 289 -81 563
-154 610 -162 100 -18 277 -13 385 11 75 16 198 56 236 77 19 10 906 582 1297
836 46 30 116 75 155 100 40 25 77 53 84 62 21 28 15 75 -18 124 -39 60 -87
100 -168 140 -55 27 -78 32 -156 35 -69 3 -106 0 -143 -12 -27 -9 -202 -89
-388 -177 -300 -142 -340 -158 -349 -143 -76 128 -214 224 -364 254 -25 5
-206 14 -402 20 -412 12 -444 17 -610 101 -57 28 -135 63 -174 76 -249 85
-577 67 -797 -43 -26 -13 -50 -24 -54 -24 -4 0 -4 32 -1 71 8 92 -7 133 -55
147 -18 6 -187 14 -379 18 -343 6 -347 6 -367 -14z m633 -164 c2 -4 -22 -890
-30 -1107 l-7 -184 -246 7 c-135 4 -247 8 -248 9 -2 2 33 1270 35 1286 1 4
493 -7 496 -11z m902 -134 c53 -13 145 -48 219 -84 133 -63 226 -94 316 -104
29 -4 207 -11 396 -16 306 -9 348 -13 398 -31 66 -25 128 -70 170 -126 33 -43
71 -129 62 -139 -3 -2 -213 1 -466 7 -423 12 -462 11 -485 -4 -33 -21 -43 -67
-23 -105 8 -16 23 -33 33 -37 10 -4 249 -14 532 -22 391 -11 520 -12 541 -3
37 15 52 54 48 124 l-3 56 293 140 c424 202 427 203 497 203 45 0 73 -6 113
-26 28 -15 52 -31 52 -35 0 -7 -198 -138 -470 -312 -39 -25 -264 -170 -501
-324 -543 -352 -563 -361 -829 -361 l-155 0 -275 79 c-758 215 -838 236 -922
236 -86 0 -162 -21 -238 -64 -68 -39 -73 -36 -66 37 3 34 8 199 11 367 3 168
8 332 11 366 l5 61 77 40 c205 108 430 134 659 77z"/>
</g>
</svg>
