<?xml version="1.0" standalone="no"?>
<!DOCTYPE svg PUBLIC "-//W3C//DTD SVG 20010904//EN"
 "http://www.w3.org/TR/2001/REC-SVG-20010904/DTD/svg10.dtd">
<svg version="1.0" xmlns="http://www.w3.org/2000/svg"
 width="512.000000pt" height="512.000000pt" viewBox="0 0 512.000000 512.000000"
 preserveAspectRatio="xMidYMid meet">

<g transform="translate(0.000000,512.000000) scale(0.100000,-0.100000)"
fill="#000000" stroke="none">
<path d="M1180 5113 c-177 -30 -344 -159 -419 -325 -85 -188 -65 -392 54 -560
l34 -46 -57 -38 c-31 -20 -86 -65 -121 -98 -166 -159 -254 -358 -268 -602 -5
-101 -4 -116 16 -156 14 -29 34 -52 60 -66 l39 -22 753 0 c698 0 757 1 788 18
61 31 76 61 80 170 11 302 -131 583 -378 751 -60 41 -62 43 -47 64 83 115 117
215 118 347 1 162 -49 287 -162 400 -127 129 -318 192 -490 163z m222 -330
c150 -85 178 -288 57 -411 -160 -163 -430 -62 -447 167 -3 54 0 77 17 117 64
147 234 205 373 127z m12 -813 c109 -27 169 -63 257 -150 81 -80 137 -178 157
-272 l10 -48 -565 0 -565 0 7 37 c20 108 92 233 178 308 145 127 335 173 521
125z"/>
<path d="M3895 5113 c-452 -56 -825 -387 -938 -832 -19 -73 -22 -112 -21 -261
0 -156 3 -185 26 -272 104 -384 401 -681 786 -786 88 -24 113 -26 277 -26 153
0 192 4 258 22 324 89 583 300 722 586 321 663 -80 1437 -809 1561 -81 14
-225 18 -301 8z m330 -318 c253 -68 467 -270 550 -518 124 -372 -39 -777 -384
-956 -114 -59 -199 -82 -324 -88 -246 -13 -454 71 -623 250 -146 155 -214 326
-214 542 0 381 261 699 640 781 81 17 271 11 355 -11z"/>
<path d="M3976 4500 c-41 -13 -84 -58 -96 -99 -5 -20 -10 -80 -10 -133 l0 -98
-114 0 c-101 0 -117 -2 -147 -23 -67 -44 -88 -135 -46 -197 44 -65 66 -75 192
-79 l113 -3 4 -113 c3 -123 11 -144 72 -189 40 -30 120 -29 165 3 49 35 61 74
61 196 l0 105 103 0 c87 0 110 4 147 23 80 40 108 135 62 210 -34 54 -72 67
-201 67 l-111 0 0 113 c0 134 -14 169 -80 204 -46 24 -67 27 -114 13z"/>
<path d="M1300 2893 c-46 -17 -90 -81 -345 -491 l-280 -450 -280 -4 c-260 -3
-282 -4 -315 -23 -19 -12 -43 -36 -55 -55 -19 -34 -20 -52 -23 -681 l-3 -645
23 -34 c51 -74 51 -74 329 -80 l250 -5 23 -57 c33 -81 78 -148 139 -205 284
-268 742 -190 915 156 23 46 42 90 42 97 0 12 131 14 835 14 787 0 836 -1 841
-17 26 -82 84 -174 148 -239 107 -107 221 -159 371 -170 231 -17 450 109 554
317 23 45 41 87 41 95 0 10 50 14 254 16 280 3 279 3 330 72 20 27 21 39 21
449 l0 422 -27 75 c-40 114 -74 168 -162 256 -93 93 -182 143 -298 168 -40 9
-188 25 -328 36 -140 11 -282 23 -315 26 l-60 6 -340 460 c-252 342 -350 466
-375 479 -33 18 -77 19 -965 18 -511 0 -937 -3 -945 -6z m730 -618 l0 -325
-501 0 c-397 0 -499 3 -493 13 4 6 94 153 201 325 l194 312 300 0 299 0 0
-325z m1270 9 c129 -174 237 -320 238 -325 2 -5 -256 -9 -602 -9 l-606 0 0
325 0 325 368 0 368 0 234 -316z m863 -664 c205 -17 395 -37 423 -45 64 -19
125 -62 168 -122 60 -82 66 -124 66 -441 l0 -282 -153 0 -153 0 -17 52 c-52
164 -221 317 -402 363 -74 19 -213 19 -282 1 -182 -49 -333 -180 -400 -348
l-26 -68 -829 0 -828 0 -12 28 c-46 114 -76 161 -147 233 -125 125 -255 175
-435 167 -158 -7 -273 -58 -387 -172 -55 -56 -125 -170 -141 -234 -6 -22 -9
-22 -157 -22 l-151 0 0 453 c0 250 3 457 7 460 3 4 789 7 1745 7 l1739 0 372
-30z m-2901 -776 c193 -65 242 -324 89 -467 -153 -143 -398 -73 -457 130 -38
132 30 275 160 334 51 23 146 25 208 3z m2813 -9 c178 -87 210 -331 60 -463
-170 -149 -434 -46 -461 180 -13 115 53 234 161 285 42 20 62 23 125 21 48 -3
89 -11 115 -23z"/>
<path d="M2363 1340 c-129 -30 -160 -201 -50 -269 32 -20 49 -21 246 -21 168
0 218 3 241 15 119 62 97 238 -35 274 -45 12 -352 13 -402 1z"/>
</g>
</svg>
