<?xml version="1.0" standalone="no"?>
<!DOCTYPE svg PUBLIC "-//W3C//DTD SVG 20010904//EN"
 "http://www.w3.org/TR/2001/REC-SVG-20010904/DTD/svg10.dtd">
<svg version="1.0" xmlns="http://www.w3.org/2000/svg"
 width="512.000000pt" height="512.000000pt" viewBox="0 0 512.000000 512.000000"
 preserveAspectRatio="xMidYMid meet">

<g transform="translate(0.000000,512.000000) scale(0.100000,-0.100000)"
fill="#000000" stroke="none">
<path d="M503 4857 c-75 -75 -103 -110 -103 -128 0 -13 36 -132 80 -264 81
-244 94 -305 64 -305 -108 0 -224 -125 -224 -240 0 -120 116 -240 232 -240 22
0 28 -8 47 -58 41 -114 131 -232 226 -298 l55 -37 0 -57 c0 -52 -2 -58 -27
-69 -16 -7 -109 -49 -208 -93 -99 -44 -202 -95 -230 -113 -102 -66 -186 -174
-227 -293 l-23 -67 0 -700 0 -700 27 -51 c15 -28 38 -65 52 -81 33 -39 129
-90 189 -98 l47 -7 0 -375 0 -374 25 -24 24 -25 671 0 671 0 24 25 25 24 0
374 0 375 48 7 c26 4 73 21 105 38 61 32 98 72 138 147 l24 45 3 670 c3 741 2
751 -60 876 -36 71 -129 175 -196 217 -26 17 -140 72 -254 123 l-208 92 0 57
0 57 55 37 c95 66 185 184 226 298 19 50 25 58 47 58 116 0 232 120 232 240 0
115 -116 240 -224 240 -30 0 -17 61 64 305 44 132 80 251 80 264 0 18 -28 53
-103 128 l-103 103 -594 0 -594 0 -103 -103z m1273 -108 c48 -48 51 -54 42
-80 l-10 -29 -608 0 -608 0 -10 28 c-9 25 -5 32 41 80 l51 52 525 0 525 0 52
-51z m-26 -277 c0 -4 -11 -39 -23 -78 l-24 -69 -503 0 -503 0 -24 69 c-12 39
-23 74 -23 78 0 4 248 8 550 8 303 0 550 -4 550 -8z m-90 -328 c0 -27 -101
-119 -146 -132 -57 -17 -571 -17 -628 0 -45 13 -146 105 -146 132 0 14 49 16
460 16 411 0 460 -2 460 -16z m-1100 -224 c0 -65 -3 -80 -15 -80 -27 0 -65 47
-65 80 0 33 38 80 65 80 12 0 15 -15 15 -80z m1335 55 c16 -15 25 -36 25 -55
0 -33 -38 -80 -65 -80 -12 0 -15 15 -15 80 0 90 11 100 55 55z m-1032 -121
c39 -10 125 -14 337 -14 307 0 349 5 435 53 l45 26 0 -58 c0 -138 -46 -257
-135 -350 -300 -314 -825 -97 -825 340 l0 68 45 -26 c25 -14 69 -31 98 -39z
m337 -649 c47 0 102 4 123 8 36 8 38 7 35 -14 -2 -19 -17 -27 -80 -48 l-76
-24 -81 24 c-71 21 -81 27 -81 47 0 21 3 22 38 15 20 -4 75 -8 122 -8z m-182
-188 l33 -12 -46 -45 -45 -44 -40 39 -40 39 32 18 c38 20 61 21 106 5z m470
-5 l32 -18 -40 -39 -40 -39 -45 44 -46 45 33 12 c45 16 68 15 106 -5z m-529
-292 c30 0 47 13 137 102 l104 102 104 -102 c139 -137 137 -137 271 3 l100
104 106 -47 c157 -72 211 -120 267 -239 l27 -58 3 -572 3 -573 -81 0 -80 0 0
560 0 560 -80 0 -80 0 0 -600 0 -600 -560 0 -560 0 0 600 0 600 -80 0 -80 0 0
-560 0 -560 -80 0 -81 0 3 573 3 572 32 68 c50 104 115 162 254 224 l114 51
100 -104 c88 -92 104 -104 134 -104z m-479 -1521 l0 -81 -32 6 c-60 11 -113
64 -124 124 l-6 32 81 0 81 0 0 -81z m1596 49 c-7 -38 -31 -74 -67 -100 -13
-10 -39 -21 -56 -24 l-33 -6 0 81 0 81 81 0 82 0 -7 -32z m-316 -488 l0 -440
-240 0 -240 0 0 320 0 320 -80 0 -80 0 0 -320 0 -320 -240 0 -240 0 0 440 0
440 560 0 560 0 0 -440z"/>
<path d="M2825 2855 c-24 -23 -25 -29 -25 -160 l0 -135 -200 0 -200 0 0 -80 0
-80 889 0 889 0 20 -80 20 -80 -909 0 -909 0 0 -80 0 -80 933 0 932 0 88 -233
c48 -129 87 -237 87 -240 0 -4 -317 -7 -705 -7 l-704 0 -20 46 c-32 71 -75
118 -143 155 -58 31 -70 34 -148 34 -70 0 -93 -4 -130 -24 -80 -42 -117 -78
-154 -152 -32 -62 -36 -79 -36 -145 l0 -74 1095 0 1096 0 24 -25 25 -24 0
-351 0 -351 -25 -24 -24 -25 -1256 0 -1255 0 0 -80 0 -80 80 0 80 0 0 -80 0
-80 -80 0 -80 0 0 -81 0 -81 108 4 c102 3 111 5 146 32 53 40 66 78 66 191 l0
95 879 0 879 0 4 -108 c3 -100 5 -111 30 -144 49 -64 73 -70 302 -66 l203 3
37 29 c68 51 66 35 66 651 0 470 -2 561 -15 591 l-15 36 43 48 c93 103 90 228
-8 325 -75 75 -165 95 -253 55 -31 -14 -44 -16 -47 -7 -2 7 -28 77 -58 157
-30 80 -68 204 -86 276 -38 152 -55 185 -110 214 -37 18 -58 20 -266 20 l-225
0 0 135 c0 131 -1 137 -25 160 l-24 25 -431 0 -431 0 -24 -25z m775 -215 l0
-80 -320 0 -320 0 0 80 0 80 320 0 320 0 0 -80z m1095 -905 c49 -48 15 -135
-53 -135 -25 0 -30 6 -50 60 -21 60 -21 61 -2 80 28 28 75 26 105 -5z m-1918
-66 c30 -11 73 -47 73 -61 0 -4 -58 -8 -130 -8 -71 0 -130 4 -130 8 0 13 42
50 70 61 34 13 82 13 117 0z m1863 -1264 l0 -85 -160 0 -160 0 0 80 0 79 148
4 c81 1 153 4 160 5 9 1 12 -20 12 -83z"/>
<path d="M2320 1200 c0 -65 3 -80 15 -80 9 0 27 -11 40 -25 71 -70 -28 -178
-106 -116 -24 19 -25 18 -87 -17 -34 -20 -62 -42 -62 -48 0 -21 87 -90 128
-102 91 -28 167 -8 237 63 52 51 75 102 75 165 0 115 -116 240 -224 240 -13 0
-16 -13 -16 -80z"/>
<path d="M2880 1200 l0 -80 400 0 400 0 0 80 0 80 -400 0 -400 0 0 -80z"/>
<path d="M4160 1267 c-49 -16 -133 -102 -148 -153 -28 -94 -8 -169 63 -239 70
-71 145 -91 239 -63 55 16 138 99 154 154 28 94 8 169 -63 239 -70 71 -152 91
-245 62z m135 -172 c50 -49 15 -135 -55 -135 -41 0 -80 39 -80 80 0 41 39 80
80 80 19 0 40 -9 55 -25z"/>
<path d="M2880 880 l0 -80 400 0 400 0 0 80 0 80 -400 0 -400 0 0 -80z"/>
</g>
</svg>
