<?xml version="1.0" standalone="no"?>
<!DOCTYPE svg PUBLIC "-//W3C//DTD SVG 20010904//EN"
 "http://www.w3.org/TR/2001/REC-SVG-20010904/DTD/svg10.dtd">
<svg version="1.0" xmlns="http://www.w3.org/2000/svg"
 width="512.000000pt" height="512.000000pt" viewBox="0 0 512.000000 512.000000"
 preserveAspectRatio="xMidYMid meet">

<g transform="translate(0.000000,512.000000) scale(0.100000,-0.100000)"
fill="#000000" stroke="none">
<path d="M1330 5104 c-266 -57 -470 -311 -470 -584 0 -324 276 -600 600 -600
276 0 528 205 585 475 43 204 -16 397 -164 546 -149 149 -347 207 -551 163z
m236 -416 c19 -13 47 -41 62 -62 23 -33 27 -50 27 -106 0 -56 -4 -73 -27 -106
-46 -65 -91 -89 -168 -89 -54 0 -73 5 -103 25 -77 52 -111 140 -88 227 13 48
79 119 125 133 49 15 133 4 172 -22z"/>
<path d="M3755 5114 c-166 -25 -294 -63 -425 -129 -337 -170 -576 -484 -657
-865 -12 -60 -18 -129 -18 -235 0 -106 6 -175 18 -235 106 -500 477 -871 977
-977 117 -24 353 -24 470 0 500 106 871 478 976 977 13 60 18 129 18 235 0
106 -5 175 -18 235 -104 497 -478 872 -971 975 -77 16 -308 28 -370 19z m358
-428 c144 -42 249 -104 356 -209 104 -102 173 -216 218 -364 23 -77 26 -105
26 -228 0 -123 -3 -151 -26 -228 -47 -154 -115 -265 -228 -373 -110 -104 -200
-156 -346 -201 -77 -23 -105 -26 -228 -26 -123 0 -151 3 -228 26 -148 45 -262
114 -364 218 -104 106 -165 210 -210 356 -23 77 -26 105 -26 228 0 123 3 151
26 228 32 104 64 170 122 252 130 183 323 304 552 345 86 16 259 4 356 -24z"/>
<path d="M3822 4489 c-47 -14 -109 -80 -122 -129 -7 -27 -10 -130 -8 -294 l3
-253 27 -40 c15 -22 44 -51 65 -64 38 -24 41 -24 308 -24 267 0 270 0 308 24
21 13 50 42 65 64 23 34 27 52 27 107 0 55 -4 73 -27 107 -15 22 -44 51 -65
64 -34 22 -52 24 -175 27 l-136 4 -4 141 c-3 129 -5 146 -27 180 -47 76 -151
113 -239 86z"/>
<path d="M132 3719 c-45 -13 -108 -80 -121 -126 -7 -25 -11 -317 -11 -875 0
-687 3 -858 15 -951 34 -259 132 -487 299 -696 l69 -86 -182 -360 c-100 -199
-184 -378 -188 -398 -18 -116 81 -227 204 -227 46 0 128 46 156 88 13 20 93
172 177 337 83 165 153 301 154 303 2 1 45 -18 97 -42 113 -52 197 -81 321
-108 82 -18 137 -21 456 -25 l363 -5 113 -226 c63 -125 126 -240 140 -255 31
-34 100 -66 140 -67 121 -1 221 112 203 228 -6 37 -282 592 -321 645 -11 15
-42 38 -70 52 l-50 25 -387 0 c-300 0 -406 3 -473 15 -354 62 -650 308 -775
645 -57 153 -54 111 -60 1085 l-6 900 -24 38 c-47 76 -151 113 -239 86z"/>
<path d="M1270 3714 c-221 -47 -408 -236 -455 -459 -22 -103 -22 -1327 0
-1430 43 -204 201 -378 405 -448 63 -21 81 -22 639 -27 l575 -5 295 -610 c163
-336 306 -627 319 -647 32 -51 116 -92 175 -86 94 11 155 62 178 151 10 36 11
57 2 89 -7 24 -159 349 -340 722 -353 731 -365 752 -448 775 -27 7 -237 11
-646 11 l-605 0 -51 25 c-33 17 -61 41 -79 68 l-29 42 0 656 0 656 27 39 c15
21 44 50 65 64 32 22 48 25 118 25 70 0 86 -3 118 -25 21 -14 50 -43 65 -64
l27 -39 5 -457 5 -457 27 -40 c41 -62 90 -88 168 -88 78 0 127 26 168 88 l27
41 3 447 c3 503 0 538 -64 669 -51 103 -161 213 -264 264 -130 63 -286 81
-430 50z"/>
</g>
</svg>
